<?xml version="1.0" standalone="no"?><!DOCTYPE svg PUBLIC "-//W3C//DTD SVG 1.1//EN" "http://www.w3.org/Graphics/SVG/1.1/DTD/svg11.dtd"><svg t="1697902763682" class="icon" viewBox="0 0 1024 1024" version="1.1" xmlns="http://www.w3.org/2000/svg" p-id="20989" xmlns:xlink="http://www.w3.org/1999/xlink" width="200" height="200"><path d="M506.543787 0c62.415238 0 110.689524 60.708571 153.502476 126.147048l41.837714 65.633523c8.825905 13.653333 17.554286 26.672762 26.233905 38.375619l15.164952 20.041143c7.216762 9.362286 13.897143 17.700571 19.992381 25.209905l24.039619 29.549714c17.066667 21.357714 25.551238 34.767238 25.551238 51.2 0 22.869333-13.458286 37.546667-27.452952 49.249524l-9.264762 7.363048c-11.702857 9.118476-21.601524 16.871619-21.601524 26.526476 0 9.45981 9.264762 17.944381 21.552762 26.86781l25.209905 17.749333c11.654095 8.630857 22.576762 18.18819 28.867048 29.598476l12.190476 26.282667c40.17981 88.990476 108.739048 261.12 95.963428 304.615619-16.920381 57.246476-54.125714 132.096-117.808762 132.096H192.51712c-63.683048 0-100.888381-74.849524-117.808762-132.144762-14.238476-48.274286 72.070095-255.414857 108.202667-330.849524 6.241524-11.410286 17.16419-20.967619 28.818285-29.598476l25.209905-17.749333c12.288-8.923429 21.601524-17.408 21.601524-26.819048 0-6.972952-5.071238-12.873143-12.190476-19.017143l-18.67581-14.969905c-13.994667-11.702857-27.501714-26.331429-27.501714-49.249524 0-20.041143 12.678095-35.59619 38.180571-66.657523l17.700572-21.845334c8.630857-10.776381 18.236952-23.113143 28.867048-37.449143 8.728381-11.702857 17.408-24.722286 26.233904-38.375619l29.744762-46.86019C386.687025 72.850286 438.130834 0 506.543787 0z m262.92419 613.034667H243.570834a14.628571 14.628571 0 0 0-14.531047 16.091428l30.427428 305.249524a9.752381 9.752381 0 0 0 9.703619 8.777143h474.745905a9.752381 9.752381 0 0 0 9.703619-8.777143l30.427429-305.249524a14.628571 14.628571 0 0 0-14.57981-16.091428zM504.203215 374.979048h-6.92419c-4.291048 0-7.558095 2.243048-10.093715 7.070476a75.337143 75.337143 0 0 0-4.583619 10.630095l-1.999238 6.241524a96.060952 96.060952 0 0 1-8.289523 19.748571 45.29981 45.29981 0 0 1-18.724572 17.212953c-8.874667 4.681143-20.138667 7.119238-33.938286 7.119238-4.924952 0-9.606095-0.487619-13.994666-1.219048l-11.702857-2.340571a28.964571 28.964571 0 0 1-9.996191-4.583619l-8.094476-5.36381a26.575238 26.575238 0 0 1-6.875429-7.801905l-5.510095-8.484571c8.484571 24.771048 23.600762 47.152762 43.593143 64.560762l16.579048 14.384762a117.955048 117.955048 0 0 0 153.453714 0l18.383238-15.701334c19.309714-16.579048 33.694476-38.034286 41.642667-62.171428l-4.876191 7.460571a25.35619 25.35619 0 0 1-6.875428 7.753143l-5.071239 3.218286-3.023238 2.145524a26.819048 26.819048 0 0 1-9.99619 4.583619 233.667048 233.667048 0 0 1-11.605333 2.340571 73.728 73.728 0 0 1-13.994667 1.219048c-13.897143 0-25.063619-2.243048-33.938286-7.119238a45.29981 45.29981 0 0 1-18.724571-17.212953c-2.438095-4.388571-4.388571-8.825905-6.046476-13.165714l-2.243048-6.582857a96.451048 96.451048 0 0 0-6.582857-16.871619c-2.340571-4.681143-5.802667-7.070476-9.996191-7.070476z m-163.84-64.365715l-0.487619 7.509334c0 7.363048 0.585143 14.823619 1.706667 22.381714 7.558095-1.950476 24.576-2.974476 51.053714-2.974476 26.819048 0 58.806857 3.510857 95.768381 10.776381a43.056762 43.056762 0 0 0 12.044191 1.219047c3.608381 0 6.582857-0.195048 8.923428-0.585143l3.072-0.633904c37.059048-7.168 69.046857-10.776381 95.768381-10.776381l17.749333 0.146285c16.042667 0.341333 27.014095 1.26781 32.865524 2.730667a152.624762 152.624762 0 0 0 1.316572-29.939809c-102.64381-31.158857-217.136762-32.865524-319.780572 0.097523z" fill="#d81e06" p-id="20990"></path></svg>